{
    "asset" : {
        "generator" : "Khronos glTF Blender I/O v3.3.32",
        "version" : "2.0"
    },
    "extensionsUsed" : [
        "KHR_materials_unlit"
    ],
    "scene" : 0,
    "scenes" : [
        {
            "name" : "Scene",
            "nodes" : [
                0
            ]
        }
    ],
    "nodes" : [
        {
            "mesh" : 0,
            "name" : "1",
            "rotation" : [
                0,
                0.042937926948070526,
                0,
                0.9990777373313904
            ],
            "scale" : [
                0.08540493249893188,
                0.06297557055950165,
                0.16603276133537292
            ],
            "translation" : [
                0.6342554092407227,
                0.24945765733718872,
                -0.8574331998825073
            ]
        }
    ],
    "materials" : [
        {
            "doubleSided" : true,
            "extensions" : {
                "KHR_materials_unlit" : {}
            },
            "name" : "Material.005",
            "pbrMetallicRoughness" : {
                "baseColorTexture" : {
                    "index" : 0,
                    "texCoord" : 0
                },
                "metallicFactor" : 0,
                "roughnessFactor" : 0.9
            }
        }
    ],
    "meshes" : [
        {
            "name" : "Cube.011",
            "primitives" : [
                {
                    "attributes" : {
                        "POSITION" : 0,
                        "NORMAL" : 1,
                        "TEXCOORD_0" : 2
                    },
                    "indices" : 3,
                    "material" : 0
                }
            ]
        }
    ],
    "textures" : [
        {
            "sampler" : 0,
            "source" : 0
        }
    ],
    "images" : [
        {
            "bufferView" : 4,
            "mimeType" : "image/png",
            "name" : "1BAKE"
        }
    ],
    "accessors" : [
        {
            "bufferView" : 0,
            "componentType" : 5126,
            "count" : 23524,
            "max" : [
                1.719754695892334,
                1.5425589084625244,
                1.1672049760818481
            ],
            "min" : [
                -1.719754695892334,
                -1.009405255317688,
                -1.1672049760818481
            ],
            "type" : "VEC3"
        },
        {
            "bufferView" : 1,
            "componentType" : 5126,
            "count" : 23524,
            "type" : "VEC3"
        },
        {
            "bufferView" : 2,
            "componentType" : 5126,
            "count" : 23524,
            "type" : "VEC2"
        },
        {
            "bufferView" : 3,
            "componentType" : 5123,
            "count" : 45924,
            "type" : "SCALAR"
        }
    ],
    "bufferViews" : [
        {
            "buffer" : 0,
            "byteLength" : 282288,
            "byteOffset" : 0,
            "target" : 34962
        },
        {
            "buffer" : 0,
            "byteLength" : 282288,
            "byteOffset" : 282288,
            "target" : 34962
        },
        {
            "buffer" : 0,
            "byteLength" : 188192,
            "byteOffset" : 564576,
            "target" : 34962
        },
        {
            "buffer" : 0,
            "byteLength" : 91848,
            "byteOffset" : 752768,
            "target" : 34963
        },
        {
            "buffer" : 0,
            "byteLength" : 1330120,
            "byteOffset" : 844616
        }
    ],
    "samplers" : [
        {
            "magFilter" : 9729,
            "minFilter" : 9987
        }
    ],
    "buffers" : [
        {
            "byteLength" : 2174736,
            "uri" : "data:application/octet-stream;base64,"
        }
    ]
}
