{
    "asset" : {
        "generator" : "Khronos glTF Blender I/O v3.3.32",
        "version" : "2.0"
    },
    "extensionsUsed" : [
        "KHR_materials_unlit"
    ],
    "scene" : 0,
    "scenes" : [
        {
            "name" : "Scene",
            "nodes" : [
                0
            ]
        }
    ],
    "nodes" : [
        {
            "mesh" : 0,
            "name" : "6",
            "rotation" : [
                0,
                -0.43762123584747314,
                0,
                0.8991594314575195
            ],
            "scale" : [
                0.016040459275245667,
                0.016040461137890816,
                0.022713933140039444
            ],
            "translation" : [
                -0.29108279943466187,
                0.29238080978393555,
                -1.0027539730072021
            ]
        }
    ],
    "materials" : [
        {
            "doubleSided" : true,
            "extensions" : {
                "KHR_materials_unlit" : {}
            },
            "name" : "Material.009",
            "pbrMetallicRoughness" : {
                "baseColorTexture" : {
                    "index" : 0,
                    "texCoord" : 0
                },
                "metallicFactor" : 0,
                "roughnessFactor" : 0.9
            }
        }
    ],
    "meshes" : [
        {
            "name" : "Cube.005",
            "primitives" : [
                {
                    "attributes" : {
                        "POSITION" : 0,
                        "NORMAL" : 1,
                        "TEXCOORD_0" : 2
                    },
                    "indices" : 3,
                    "material" : 0
                }
            ]
        }
    ],
    "textures" : [
        {
            "sampler" : 0,
            "source" : 0
        }
    ],
    "images" : [
        {
            "bufferView" : 4,
            "mimeType" : "image/png",
            "name" : "6BAKE"
        }
    ],
    "accessors" : [
        {
            "bufferView" : 0,
            "componentType" : 5126,
            "count" : 14065,
            "max" : [
                2.520404815673828,
                1.2014106512069702,
                3.138171672821045
            ],
            "min" : [
                -2.0592246055603027,
                -4.613879680633545,
                -1.0140337944030762
            ],
            "type" : "VEC3"
        },
        {
            "bufferView" : 1,
            "componentType" : 5126,
            "count" : 14065,
            "type" : "VEC3"
        },
        {
            "bufferView" : 2,
            "componentType" : 5126,
            "count" : 14065,
            "type" : "VEC2"
        },
        {
            "bufferView" : 3,
            "componentType" : 5123,
            "count" : 73152,
            "type" : "SCALAR"
        }
    ],
    "bufferViews" : [
        {
            "buffer" : 0,
            "byteLength" : 168780,
            "byteOffset" : 0,
            "target" : 34962
        },
        {
            "buffer" : 0,
            "byteLength" : 168780,
            "byteOffset" : 168780,
            "target" : 34962
        },
        {
            "buffer" : 0,
            "byteLength" : 112520,
            "byteOffset" : 337560,
            "target" : 34962
        },
        {
            "buffer" : 0,
            "byteLength" : 146304,
            "byteOffset" : 450080,
            "target" : 34963
        },
        {
            "buffer" : 0,
            "byteLength" : 1007365,
            "byteOffset" : 596384
        }
    ],
    "samplers" : [
        {
            "magFilter" : 9729,
            "minFilter" : 9987
        }
    ],
    "buffers" : [
        {
            "byteLength" : 1603752,
            "uri" : "data:application/octet-stream;base64,"
        }
    ]
}
