{
    "asset" : {
        "generator" : "Khronos glTF Blender I/O v3.3.32",
        "version" : "2.0"
    },
    "extensionsUsed" : [
        "KHR_materials_unlit"
    ],
    "scene" : 0,
    "scenes" : [
        {
            "name" : "Scene",
            "nodes" : [
                0
            ]
        }
    ],
    "nodes" : [
        {
            "mesh" : 0,
            "name" : "2",
            "rotation" : [
                0,
                -0.8799219727516174,
                0,
                0.4751182198524475
            ],
            "scale" : [
                0.03518562391400337,
                0.026775741949677467,
                0.026775740087032318
            ],
            "translation" : [
                0.39221498370170593,
                0.17622296512126923,
                -0.70947265625
            ]
        }
    ],
    "materials" : [
        {
            "doubleSided" : true,
            "extensions" : {
                "KHR_materials_unlit" : {}
            },
            "name" : "Material.004",
            "pbrMetallicRoughness" : {
                "baseColorTexture" : {
                    "index" : 0,
                    "texCoord" : 0
                },
                "metallicFactor" : 0,
                "roughnessFactor" : 0.9
            }
        }
    ],
    "meshes" : [
        {
            "name" : "Cube",
            "primitives" : [
                {
                    "attributes" : {
                        "POSITION" : 0,
                        "NORMAL" : 1,
                        "TEXCOORD_0" : 2
                    },
                    "indices" : 3,
                    "material" : 0
                }
            ]
        }
    ],
    "textures" : [
        {
            "sampler" : 0,
            "source" : 0
        }
    ],
    "images" : [
        {
            "bufferView" : 4,
            "mimeType" : "image/png",
            "name" : "2BAKE"
        }
    ],
    "accessors" : [
        {
            "bufferView" : 0,
            "componentType" : 5126,
            "count" : 6128,
            "max" : [
                2.305520534515381,
                2.8734469413757324,
                3.369656562805176
            ],
            "min" : [
                -2.305520534515381,
                -1,
                -2.412442684173584
            ],
            "type" : "VEC3"
        },
        {
            "bufferView" : 1,
            "componentType" : 5126,
            "count" : 6128,
            "type" : "VEC3"
        },
        {
            "bufferView" : 2,
            "componentType" : 5126,
            "count" : 6128,
            "type" : "VEC2"
        },
        {
            "bufferView" : 3,
            "componentType" : 5123,
            "count" : 20310,
            "type" : "SCALAR"
        }
    ],
    "bufferViews" : [
        {
            "buffer" : 0,
            "byteLength" : 73536,
            "byteOffset" : 0,
            "target" : 34962
        },
        {
            "buffer" : 0,
            "byteLength" : 73536,
            "byteOffset" : 73536,
            "target" : 34962
        },
        {
            "buffer" : 0,
            "byteLength" : 49024,
            "byteOffset" : 147072,
            "target" : 34962
        },
        {
            "buffer" : 0,
            "byteLength" : 40620,
            "byteOffset" : 196096,
            "target" : 34963
        },
        {
            "buffer" : 0,
            "byteLength" : 1222815,
            "byteOffset" : 236716
        }
    ],
    "samplers" : [
        {
            "magFilter" : 9729,
            "minFilter" : 9987
        }
    ],
    "buffers" : [
        {
            "byteLength" : 1459532,
            "uri" : "data:application/octet-stream;base64,"
        }
    ]
}
