{
    "asset" : {
        "generator" : "Khronos glTF Blender I/O v3.3.32",
        "version" : "2.0"
    },
    "scene" : 0,
    "scenes" : [
        {
            "name" : "Scene",
            "nodes" : [
                0
            ]
        }
    ],
    "nodes" : [
        {
            "mesh" : 0,
            "name" : "HighPoly Map.001",
            "scale" : [
                0.054890554398298264,
                0.2662592828273773,
                0.1646699160337448
            ],
            "translation" : [
                0.11103957891464233,
                0.319830983877182,
                0.32586008310317993
            ]
        }
    ],
    "meshes" : [
        {
            "name" : "Cube.002",
            "primitives" : [
                {
                    "attributes" : {
                        "POSITION" : 0,
                        "NORMAL" : 1,
                        "TEXCOORD_0" : 2
                    },
                    "indices" : 3
                }
            ]
        }
    ],
    "accessors" : [
        {
            "bufferView" : 0,
            "componentType" : 5126,
            "count" : 968,
            "max" : [
                40.451534271240234,
                1.1907438039779663,
                8.496545791625977
            ],
            "min" : [
                -34.80825424194336,
                0.4995274543762207,
                -10.436854362487793
            ],
            "type" : "VEC3"
        },
        {
            "bufferView" : 1,
            "componentType" : 5126,
            "count" : 968,
            "type" : "VEC3"
        },
        {
            "bufferView" : 2,
            "componentType" : 5126,
            "count" : 968,
            "type" : "VEC2"
        },
        {
            "bufferView" : 3,
            "componentType" : 5123,
            "count" : 2400,
            "type" : "SCALAR"
        }
    ],
    "bufferViews" : [
        {
            "buffer" : 0,
            "byteLength" : 11616,
            "byteOffset" : 0,
            "target" : 34962
        },
        {
            "buffer" : 0,
            "byteLength" : 11616,
            "byteOffset" : 11616,
            "target" : 34962
        },
        {
            "buffer" : 0,
            "byteLength" : 7744,
            "byteOffset" : 23232,
            "target" : 34962
        },
        {
            "buffer" : 0,
            "byteLength" : 4800,
            "byteOffset" : 30976,
            "target" : 34963
        }
    ],
    "buffers" : [
        {
            "byteLength" : 35776,
            "uri" : "data:application/octet-stream;base64,"
        }
    ]
}
