{
    "asset" : {
        "generator" : "Khronos glTF Blender I/O v3.3.32",
        "version" : "2.0"
    },
    "extensionsUsed" : [
        "KHR_materials_unlit"
    ],
    "scene" : 0,
    "scenes" : [
        {
            "name" : "Scene",
            "nodes" : [
                0
            ]
        }
    ],
    "nodes" : [
        {
            "mesh" : 0,
            "name" : "3",
            "rotation" : [
                0,
                0.9803868532180786,
                0,
                0.19708280265331268
            ],
            "scale" : [
                0.009459715336561203,
                0.007073916960507631,
                0.006463874131441116
            ],
            "translation" : [
                0.29423174262046814,
                0.22478805482387543,
                -0.5516100525856018
            ]
        }
    ],
    "materials" : [
        {
            "doubleSided" : true,
            "extensions" : {
                "KHR_materials_unlit" : {}
            },
            "name" : "Material.002",
            "pbrMetallicRoughness" : {
                "baseColorTexture" : {
                    "index" : 0,
                    "texCoord" : 0
                },
                "metallicFactor" : 0,
                "roughnessFactor" : 0.9
            }
        }
    ],
    "meshes" : [
        {
            "name" : "Cube.003",
            "primitives" : [
                {
                    "attributes" : {
                        "POSITION" : 0,
                        "NORMAL" : 1,
                        "TEXCOORD_0" : 2
                    },
                    "indices" : 3,
                    "material" : 0
                }
            ]
        }
    ],
    "textures" : [
        {
            "sampler" : 0,
            "source" : 0
        }
    ],
    "images" : [
        {
            "bufferView" : 4,
            "mimeType" : "image/png",
            "name" : "3BAKE"
        }
    ],
    "accessors" : [
        {
            "bufferView" : 0,
            "componentType" : 5126,
            "count" : 41614,
            "max" : [
                10.256111145019531,
                5.4208269119262695,
                14.981181144714355
            ],
            "min" : [
                -9.15229320526123,
                -8.890960693359375,
                -10.014558792114258
            ],
            "type" : "VEC3"
        },
        {
            "bufferView" : 1,
            "componentType" : 5126,
            "count" : 41614,
            "type" : "VEC3"
        },
        {
            "bufferView" : 2,
            "componentType" : 5126,
            "count" : 41614,
            "type" : "VEC2"
        },
        {
            "bufferView" : 3,
            "componentType" : 5123,
            "count" : 186084,
            "type" : "SCALAR"
        }
    ],
    "bufferViews" : [
        {
            "buffer" : 0,
            "byteLength" : 499368,
            "byteOffset" : 0,
            "target" : 34962
        },
        {
            "buffer" : 0,
            "byteLength" : 499368,
            "byteOffset" : 499368,
            "target" : 34962
        },
        {
            "buffer" : 0,
            "byteLength" : 332912,
            "byteOffset" : 998736,
            "target" : 34962
        },
        {
            "buffer" : 0,
            "byteLength" : 372168,
            "byteOffset" : 1331648,
            "target" : 34963
        },
        {
            "buffer" : 0,
            "byteLength" : 1235606,
            "byteOffset" : 1703816
        }
    ],
    "samplers" : [
        {
            "magFilter" : 9729,
            "minFilter" : 9987
        }
    ],
    "buffers" : [
        {
            "byteLength" : 2939424,
            "uri" : "data:application/octet-stream;base64,"
        }
    ]
}
